<?xml version="1.0" encoding="utf-8"?>
<!-- Generator: Adobe Illustrator 20.0.0, SVG Export Plug-In . SVG Version: 6.00 Build 0)  -->
<svg version="1.1" id="Layer_3" xmlns="http://www.w3.org/2000/svg" xmlns:xlink="http://www.w3.org/1999/xlink" x="0px" y="0px"
	 viewBox="0 0 22.8 23.2" style="enable-background:new 0 0 22.8 23.2;" xml:space="preserve">
<style type="text/css">
	.st0{fill:#FFFFFF;stroke:#FFFFFF;}
</style>
<g>
	<g>
		<path class="st0" d="M10,19.4c-5.2,0-9.5-4.2-9.5-9.5c0-5.2,4.2-9.5,9.5-9.5c5.2,0,9.5,4.2,9.5,9.5C19.4,15.2,15.2,19.4,10,19.4
			L10,19.4z M10,1.5c-4.7,0-8.5,3.8-8.5,8.5c0,4.7,3.8,8.5,8.5,8.5c4.7,0,8.5-3.8,8.5-8.5C18.4,5.3,14.6,1.5,10,1.5L10,1.5z"/>
	</g>
	<g>
		<path class="st0" d="M21.8,22.7c-0.1,0-0.3,0-0.4-0.1L15.9,17c-0.2-0.2-0.2-0.5,0-0.7c0.2-0.2,0.5-0.2,0.7,0l5.6,5.6
			c0.2,0.2,0.2,0.5,0,0.7C22.1,22.7,22,22.7,21.8,22.7L21.8,22.7z"/>
	</g>
</g>
</svg>
