<?xml version="1.0" encoding="utf-8"?>
<!-- Generator: Adobe Illustrator 20.0.0, SVG Export Plug-In . SVG Version: 6.00 Build 0)  -->
<svg version="1.1" id="Icons" xmlns="http://www.w3.org/2000/svg" xmlns:xlink="http://www.w3.org/1999/xlink" x="0px" y="0px"
	 viewBox="0 0 90 90" style="enable-background:new 0 0 90 90;" xml:space="preserve">
<path id="Path" d="M22.3,4C10.8,8.5,2.9,17.4,0.7,29.3c-1.3,7.3-0.8,15.3,2.4,22.1c0.7,1.5,1.6,3,2.6,4.3c0.5,0.7,1,1.3,1.6,1.9
	c1-0.4,2-0.8,3-1.4c3.9-2.2,6.8-5.6,10.2-8.5c-11.2-13,0.7-29.1,15.5-32.6c13.8-3.3,32.6,2.4,36.8,16.6c1.7,5.9,0.6,12.4-4.2,16.7
	c-2.5,2.2-5.7,3.7-9.1,4.3c-2,0.3-4,0.4-6,0.2c-1.1-0.1-2.2-0.3-3.3-0.6c-1.8-0.4-3.5-0.4-3.5-2.4c0-5.2,0-10.4,0-15.6
	c0-2.6,0-5.2,0-7.8c0-1.6,0.2-1.3-1.2-1.5c-1-0.1-2.1-0.2-3.1-0.3c-3.7-0.3-7.5-0.5-11.1,0.1c-1.4,0.2-1.4,0-1.4,1.5
	c0,1.2,0,2.4,0,3.6c0,2.9,0,5.8,0,8.7c0,8.7,0.7,17.5,0.3,26.1c-0.1,2.6-0.2,8.8-3.1,10.1c-3.4,1.5-6.3-1.7-9.4-2.3
	c0.4,4.4-2.3,13,2.8,15.2c4.7,2,10,2.8,14.9,1.1c10.3-3.5,13.6-14.9,12.3-24.3c15.9,4.7,33-3.2,39.8-17.5
	c4.8-10.2,2.8-22.9-4.5-31.5C69.3-0.6,41.6-3.7,22.3,4z"/>
</svg>
