<?xml version="1.0" encoding="utf-8"?>
<!-- Generator: Adobe Illustrator 20.0.0, SVG Export Plug-In . SVG Version: 6.00 Build 0)  -->
<svg version="1.1" id="Layer_1" xmlns="http://www.w3.org/2000/svg" xmlns:xlink="http://www.w3.org/1999/xlink" x="0px" y="0px"
	 viewBox="0 0 254.1 16.3" style="enable-background:new 0 0 254.1 16.3;" xml:space="preserve">
<style type="text/css">
	.st0{fill:#FFFFFF;}
</style>
<path class="st0" d="M254.1,16.3h-2.7V4.6c-0.5,0.6-9.1,11.6-9.1,11.6h-1.7c0,0-8.6-11-9.1-11.6v11.6h-2.7V0h2.5
	c0,0,10,12.8,10.2,13c0.2-0.3,10.1-13,10.1-13h2.4h0.1V16.3L254.1,16.3z"/>
<path class="st0" d="M82.8,16.3h-2.7V4.6c-0.5,0.6-9.1,11.6-9.1,11.6h-1.7c0,0-8.6-11-9.1-11.6v11.6h-2.7V0h2.5c0,0,10,12.8,10.2,13
	c0.2-0.3,10.1-13,10.1-13h2.4h0.1V16.3L82.8,16.3z"/>
<polygon class="st0" points="19.6,2.6 11.1,2.6 11.1,16.3 8.5,16.3 8.5,2.6 0,2.6 0,0 19.5,0 19.6,0 19.6,2.6 "/>
<polygon class="st0" points="130.4,2.6 122,2.6 122,16.3 119.3,16.3 119.3,2.6 110.8,2.6 110.8,0 130.3,0 130.4,0 130.4,2.6 "/>
<path class="st0" d="M188.1,16.3c0,0-7.2-6.5-7.3-6.6h-5.8V7h5.8c3.2,0,4.9-0.9,5-2.4c0-0.6-0.1-1-0.4-1.3c-0.5-0.5-1.5-0.8-3.3-0.8
	h-9.5v13.7h-2.7V0h0.5h11.7c2.3,0,3.8,0.4,4.8,1.2c1,0.9,1.5,1.9,1.5,3.3c0,0,0,0.3,0,0.3c-0.1,2.1-1.8,3.7-4.5,4.3
	c0.4,0.3,7.9,7.1,7.9,7.1H188.1L188.1,16.3z"/>
<path class="st0" d="M205.4,10.8c0.3-0.4,2.6-3.9,2.6-3.9s2.1-3.1,2.3-3.4c0.2,0.3,4.6,6.9,4.9,7.3H205.4L205.4,10.8z M211.1,0
	L211.1,0h-1.9l-10.9,16.3h3.3c0,0,1.9-2.8,1.9-2.9h13.2c0.1,0.1,1.9,2.9,1.9,2.9h3.3L211.1,0L211.1,0z"/>
<path class="st0" d="M33.1,10.8c0.3-0.4,2.6-3.9,2.6-3.9s2.1-3.1,2.3-3.4c0.2,0.3,4.6,6.9,4.9,7.3H33.1L33.1,10.8z M38.9,0L38.9,0
	h-1.9L26.2,16.3h3.3c0,0,1.9-2.8,1.9-2.9h13.2c0.1,0.1,1.9,2.9,1.9,2.9h3.3L38.9,0L38.9,0z"/>
<path class="st0" d="M144,10.8c0.3-0.4,2.6-3.9,2.6-3.9s2.1-3.1,2.3-3.4c0.2,0.3,4.6,6.9,4.9,7.3H144L144,10.8z M149.7,0L149.7,0
	h-1.9L137,16.3h3.3c0,0,1.9-2.8,1.9-2.9h13.2c0.1,0.1,1.9,2.9,1.9,2.9h3.3L149.7,0L149.7,0z"/>
<polygon class="st0" points="106.5,6.8 106.5,9.5 90.3,9.5 90.3,6.9 90.3,6.8 106.5,6.8 "/>
<g>
</g>
<g>
</g>
<g>
</g>
<g>
</g>
<g>
</g>
<g>
</g>
</svg>
