<?xml version="1.0" encoding="utf-8"?>
<!-- Generator: Adobe Illustrator 20.0.0, SVG Export Plug-In . SVG Version: 6.00 Build 0)  -->
<svg version="1.1" id="Icons" xmlns="http://www.w3.org/2000/svg" xmlns:xlink="http://www.w3.org/1999/xlink" x="0px" y="0px"
	 viewBox="0 0 90 62" style="enable-background:new 0 0 90 62;" xml:space="preserve">
<path id="Twitter__x28_alt_x29__2_" d="M79.8,27.6c5.1-0.4,8.5-2.7,9.8-5.8c-1.8,1.1-7.5,2.3-10.6,1.2c-0.2-0.7-0.3-1.4-0.5-2.1
	C76.1,12.1,68,5.1,59.4,5.9c0.7-0.3,1.4-0.5,2.1-0.8C62.5,4.8,68,3.9,67.1,2c-0.7-1.7-7.5,1.3-8.7,1.7C60,3,62.8,1.9,63.1,0
	c-2.6,0.4-5.1,1.6-7,3.3c0.7-0.8,1.2-1.7,1.3-2.7C50.6,5,46.6,13.9,43.3,22.4c-2.5-2.5-4.8-4.4-6.8-5.5c-5.7-3-12.4-6.2-23.1-10.2
	c-0.3,3.5,1.7,8.2,7.7,11.3c-1.3-0.2-3.7,0.2-5.5,0.7c0.8,4,3.3,7.4,10.1,9c-3.1,0.2-4.7,0.9-6.2,2.4c1.4,2.8,4.9,6.1,11.1,5.4
	c-6.9,3-2.8,8.5,2.8,7.7C23.8,53.1,8.7,52.4,0,44.1C22.7,75,71.9,62.4,79.3,32.7c5.5,0,8.7-1.9,10.7-4.1
	C86.8,29.1,82.2,28.6,79.8,27.6z"/>
</svg>
