<?xml version="1.0" encoding="utf-8"?>
<!-- Generator: Adobe Illustrator 20.0.0, SVG Export Plug-In . SVG Version: 6.00 Build 0)  -->
<svg version="1.1" id="Layer_1" xmlns="http://www.w3.org/2000/svg" xmlns:xlink="http://www.w3.org/1999/xlink" x="0px" y="0px"
	 viewBox="0 0 108 108.5" style="enable-background:new 0 0 108 108.5;" xml:space="preserve">
<style type="text/css">
	.st0{fill:#0D0E0F;}
</style>
<path class="st0" d="M65.2,55.4c0-5.9-4.8-10.6-10.6-10.6c-5.9,0-10.6,4.8-10.6,10.6c0,5.9,4.8,10.6,10.6,10.6
	C60.4,66.1,65.2,61.3,65.2,55.4z"/>
<path class="st0" d="M81,0H27C12.1,0,0,12.1,0,27v7.5h39.7c4.2-3,9.3-4.8,14.8-4.8c5.5,0,10.6,1.8,14.8,4.8h20.1H108V27
	C108,12.1,95.9,0,81,0z M92,25.7c0,1.6-1.3,3-3,3h-9.3c-1.7,0-3-1.4-3-3v-9.3c0-1.6,1.3-3,3-3H89c1.7,0,3,1.4,3,3V25.7z"/>
<path class="st0" d="M80.2,55.4c0,14.1-11.5,25.6-25.6,25.6S28.9,69.6,28.9,55.4c0-3.9,0.9-7.6,2.4-10.9H0v37c0,14.9,12.1,27,27,27
	h54c14.9,0,27-12.1,27-27v-37H77.8C79.3,47.8,80.2,51.5,80.2,55.4z"/>
<g>
</g>
<g>
</g>
<g>
</g>
<g>
</g>
<g>
</g>
<g>
</g>
</svg>
